<mxfile host="app.diagrams.net" modified="2024-05-04T08:46:51.828Z" agent="Mozilla/5.0 (Windows NT 10.0; Win64; x64) AppleWebKit/537.36 (KHTML, like Gecko) Chrome/124.0.0.0 Safari/537.36" version="24.2.1" etag="wQafT30JDzoqTwQkIDXi" type="github">
  <diagram name="Page-1" id="ny06Xvssq4K0u3u9LF6g">
    <mxGraphModel>
      <root>
        <mxCell id="0" />
        <mxCell id="1" parent="0" />
      </root>
    </mxGraphModel>
  </diagram>
</mxfile>
